<?xml version="1.0" encoding="UTF-8" standalone="no"?>
<svg
   xmlns:dc="http://purl.org/dc/elements/1.1/"
   xmlns:cc="http://creativecommons.org/ns#"
   xmlns:rdf="http://www.w3.org/1999/02/22-rdf-syntax-ns#"
   xmlns:svg="http://www.w3.org/2000/svg"
   xmlns="http://www.w3.org/2000/svg"
   xmlns:sodipodi="http://sodipodi.sourceforge.net/DTD/sodipodi-0.dtd"
   xmlns:inkscape="http://www.inkscape.org/namespaces/inkscape"
   inkscape:version="1.0beta2 (unknown)"
   inkscape:export-ydpi="96"
   inkscape:export-xdpi="96"
   inkscape:export-filename="/home/meltstrap/invidious.png"
   sodipodi:docname="invidious.svg"
   id="svg5023"
   version="1.1"
   viewBox="0 0 210 210"
   height="210mm"
   width="210mm">
  <defs
     id="defs5017" />
  <sodipodi:namedview
     inkscape:object-paths="false"
     inkscape:snap-smooth-nodes="false"
     inkscape:snap-midpoints="false"
     inkscape:window-maximized="1"
     inkscape:window-y="27"
     inkscape:window-x="1440"
     inkscape:window-height="1016"
     inkscape:window-width="1920"
     showgrid="false"
     inkscape:document-rotation="0"
     inkscape:current-layer="layer1"
     inkscape:document-units="mm"
     inkscape:cy="333.29417"
     inkscape:cx="701.56335"
     inkscape:zoom="0.70710678"
     inkscape:pageshadow="2"
     inkscape:pageopacity="0.0"
     borderopacity="1.0"
     bordercolor="#666666"
     pagecolor="#ffffff"
     id="base" />
  <metadata
     id="metadata5020">
    <rdf:RDF>
      <cc:Work
         rdf:about="">
        <dc:format>image/svg+xml</dc:format>
        <dc:type
           rdf:resource="http://purl.org/dc/dcmitype/StillImage" />
        <dc:title></dc:title>
      </cc:Work>
    </rdf:RDF>
  </metadata>
  <g
     id="layer1"
     inkscape:groupmode="layer"
     inkscape:label="Layer 1">
    <path
       inkscape:connector-curvature="0"
       id="path6954"
       d="M 0.00372665,0.00272735 V 209.99952 H 210.00051 V 0.00272735 H 0.00372665 M 93.335643,33.006521 C 107.26038,31.196932 122.30352,32.596801 135.335,37.863859 203.89546,65.575737 189.11516,167.58132 116.66859,176.99617 103.96309,178.647 90.229409,177.49435 78.169179,173.20224 7.0045009,147.87429 18.729575,42.701488 93.335643,33.006521 m 6.186975,30.200451 c -3.826723,1.907821 -1.250675,8.605082 2.792472,6.589469 3.82672,-1.90782 1.25068,-8.605088 -2.792472,-6.589469 m 0.812922,13.794573 C 95.048952,100.06164 89.0973,127.98293 77.002546,148.16712 h 11.666471 v -2.3333 H 84.002435 L 99.168857,91.001328 h 1.166683 c 4.29055,14.893442 13.78439,29.312052 20.71148,43.165992 3.98181,7.96474 5.72709,13.8843 15.45461,13.9998 L 111.71395,96.834573 Z"
       style="fill:#e95420;stroke:none;stroke-width:1.16664;fill-opacity:1" />
  </g>
</svg>
